<svg width="199" height="65" viewBox="0 0 199 65" fill="none" xmlns="http://www.w3.org/2000/svg">
<path fill-rule="evenodd" clip-rule="evenodd" d="M5.57056 29.2841C7.37646 27.8567 10.013 28.1443 11.4595 29.9264L24.2274 45.6568C25.6739 47.4389 25.3825 50.0404 23.5766 51.4678C21.7707 52.8952 19.1341 52.6077 17.6877 50.8256L4.91973 35.0954C3.47327 33.3133 3.76465 30.7115 5.57056 29.2841Z" fill="#1FA05B"/>
<path fill-rule="evenodd" clip-rule="evenodd" d="M41.0433 6.74798C43.1925 7.59387 44.2398 9.99884 43.3826 12.1196L25.4607 49.8375C24.6035 51.9582 22.1664 52.9917 20.0172 52.1458C17.8681 51.2999 16.8208 48.8952 17.678 46.7744L35.5999 9.05637C36.4571 6.93559 38.8942 5.90209 41.0433 6.74798Z" fill="#1FA05B"/>
<path d="M42.3798 3.13614C42.8853 2.79764 43.5726 3.12613 43.6169 3.72743L44.4371 14.8624C44.4814 15.4637 43.8495 15.8868 43.2997 15.624L33.1175 10.7575C32.5677 10.4947 32.5123 9.74309 33.0178 9.40459L42.3798 3.13614Z" fill="#1FA05B"/>
<path d="M45.6648 53C44.1665 53 42.7697 52.7995 41.4744 52.3985C40.2046 51.9725 39.0872 51.3459 38.1221 50.5189C37.1825 49.6919 36.4333 48.6519 35.8745 47.3988C35.3412 46.1457 35.0746 44.6796 35.0746 43.0005C35.0746 41.3465 35.3412 39.9305 35.8745 38.7526C36.4333 37.5497 37.1571 36.5723 38.0459 35.8204C38.9348 35.0435 39.9507 34.4797 41.0935 34.1288C42.2363 33.7529 43.4046 33.5649 44.5982 33.5649C45.9442 33.5649 47.1632 33.7654 48.2553 34.1664C49.3727 34.5674 50.3251 35.1187 51.1124 35.8204C51.925 36.5222 52.5473 37.3617 52.979 38.3391C53.4361 39.3165 53.6647 40.3816 53.6647 41.5344C53.6647 42.3865 53.4234 43.0381 52.9409 43.4892C52.4584 43.9403 51.7854 44.2285 50.9219 44.3538L41.5125 45.7447C41.7919 46.5718 42.3633 47.1983 43.2268 47.6243C44.0903 48.0253 45.0807 48.2258 46.1982 48.2258C47.2394 48.2258 48.2172 48.1005 49.1314 47.8499C50.0711 47.5742 50.833 47.2609 51.4171 46.9101C51.8235 47.1607 52.1663 47.5116 52.4457 47.9627C52.725 48.4138 52.8647 48.8899 52.8647 49.3912C52.8647 50.5189 52.3314 51.3585 51.2647 51.9098C50.452 52.3359 49.5378 52.6241 48.5219 52.7744C47.5061 52.9248 46.5537 53 45.6648 53ZM44.5982 38.2263C43.9887 38.2263 43.4554 38.3266 42.9982 38.5271C42.5665 38.7276 42.2109 38.9907 41.9316 39.3165C41.6522 39.6172 41.4363 39.9681 41.284 40.3691C41.157 40.745 41.0808 41.1334 41.0554 41.5344L47.5696 40.4818C47.4934 39.9806 47.214 39.4794 46.7315 38.9782C46.2489 38.4769 45.5379 38.2263 44.5982 38.2263Z" fill="#1FA05B"/>
<path d="M68.515 40.8202C68.515 40.0433 68.2864 39.4794 67.8293 39.1285C67.3976 38.7526 66.8008 38.5647 66.0389 38.5647C65.5309 38.5647 65.023 38.6273 64.5151 38.7526C64.0325 38.8779 63.6135 39.0659 63.258 39.3165V52.3609C63.004 52.4361 62.5977 52.5113 62.0389 52.5865C61.5056 52.6617 60.9469 52.6993 60.3628 52.6993C59.8041 52.6993 59.2961 52.6617 58.839 52.5865C58.4073 52.5113 58.039 52.3609 57.7343 52.1354C57.4295 51.9098 57.1882 51.6091 57.0105 51.2332C56.8581 50.8322 56.7819 50.3184 56.7819 49.6919V38.4143C56.7819 37.7376 56.9216 37.1863 57.2009 36.7602C57.5057 36.3342 57.912 35.9457 58.42 35.5949C59.2834 34.9934 60.3628 34.5047 61.658 34.1288C62.9786 33.7529 64.4389 33.5649 66.0389 33.5649C68.9086 33.5649 71.1181 34.1914 72.6673 35.4445C74.2165 36.6725 74.9911 38.3892 74.9911 40.5946V52.3609C74.7371 52.4361 74.3308 52.5113 73.772 52.5865C73.2387 52.6617 72.68 52.6993 72.0959 52.6993C71.5372 52.6993 71.0292 52.6617 70.5721 52.5865C70.1404 52.5113 69.7721 52.3609 69.4674 52.1354C69.1626 51.9098 68.9214 51.6091 68.7436 51.2332C68.5912 50.8322 68.515 50.3184 68.515 49.6919V40.8202Z" fill="#1FA05B"/>
<path d="M85.4674 46.1207C85.4674 46.7723 85.6705 47.2359 86.0769 47.5116C86.5086 47.7872 87.1054 47.9251 87.8673 47.9251C88.2483 47.9251 88.6419 47.9 89.0483 47.8499C89.4546 47.7747 89.8102 47.687 90.1149 47.5867C90.3435 47.8624 90.5339 48.1757 90.6863 48.5265C90.8641 48.8523 90.953 49.2533 90.953 49.7295C90.953 50.6818 90.5847 51.4587 89.8482 52.0602C89.1371 52.6617 87.8673 52.9624 86.0388 52.9624C83.8039 52.9624 82.077 52.4612 80.8579 51.4587C79.6643 50.4563 79.0675 48.8273 79.0675 46.5718V30.4824C79.3468 30.4072 79.7405 30.332 80.2484 30.2568C80.7817 30.1566 81.3405 30.1064 81.9246 30.1064C83.042 30.1064 83.9055 30.3069 84.515 30.7079C85.1499 31.0838 85.4674 31.8983 85.4674 33.1514V35.5573H90.4578C90.6101 35.833 90.7498 36.1838 90.8768 36.6099C91.0292 37.0109 91.1054 37.462 91.1054 37.9632C91.1054 38.8403 90.9022 39.4794 90.4958 39.8804C90.1149 40.2563 89.5943 40.4443 88.934 40.4443H85.4674V46.1207Z" fill="#1FA05B"/>
<path d="M94.244 34.3919C94.498 34.3168 94.8916 34.2416 95.4249 34.1664C95.9836 34.0912 96.5551 34.0536 97.1392 34.0536C97.6979 34.0536 98.1931 34.0912 98.6249 34.1664C99.082 34.2416 99.4629 34.3919 99.7677 34.6175C100.072 34.843 100.301 35.1563 100.453 35.5573C100.631 35.9332 100.72 36.4344 100.72 37.061V45.1433C100.72 46.1708 100.974 46.9101 101.482 47.3612C101.99 47.7872 102.726 48.0003 103.691 48.0003C104.276 48.0003 104.745 47.9501 105.101 47.8499C105.482 47.7496 105.774 47.6494 105.977 47.5492V34.3919C106.231 34.3168 106.625 34.2416 107.158 34.1664C107.717 34.0912 108.288 34.0536 108.872 34.0536C109.431 34.0536 109.926 34.0912 110.358 34.1664C110.815 34.2416 111.196 34.3919 111.501 34.6175C111.806 34.843 112.034 35.1563 112.187 35.5573C112.364 35.9332 112.453 36.4344 112.453 37.061V48.489C112.453 49.742 111.92 50.6818 110.853 51.3084C109.964 51.8597 108.898 52.2732 107.653 52.5489C106.434 52.8496 105.101 53 103.653 53C102.282 53 101.012 52.8496 99.8439 52.5489C98.7011 52.2482 97.7106 51.7845 96.8725 51.158C96.0344 50.5315 95.3868 49.7295 94.9297 48.7521C94.4726 47.7496 94.244 46.5467 94.244 45.1433V34.3919Z" fill="#1FA05B"/>
<path d="M122.892 52.3609C122.638 52.4361 122.232 52.5113 121.673 52.5865C121.14 52.6617 120.581 52.6993 119.997 52.6993C119.438 52.6993 118.93 52.6617 118.473 52.5865C118.042 52.5113 117.673 52.3609 117.369 52.1354C117.064 51.9098 116.823 51.6091 116.645 51.2332C116.492 50.8322 116.416 50.3184 116.416 49.6919V38.4143C116.416 37.8379 116.518 37.3492 116.721 36.9482C116.95 36.5222 117.267 36.1462 117.673 35.8204C118.08 35.4946 118.575 35.2064 119.159 34.9558C119.769 34.6801 120.416 34.4421 121.102 34.2416C121.788 34.0411 122.499 33.8907 123.235 33.7905C123.972 33.6652 124.708 33.6025 125.445 33.6025C126.664 33.6025 127.629 33.8406 128.34 34.3168C129.051 34.7679 129.406 35.5197 129.406 36.5723C129.406 36.9231 129.356 37.274 129.254 37.6249C129.152 37.9507 129.025 38.2514 128.873 38.5271C128.34 38.5271 127.794 38.5521 127.235 38.6022C126.676 38.6524 126.13 38.7276 125.597 38.8278C125.064 38.928 124.556 39.0408 124.073 39.1661C123.616 39.2664 123.222 39.3917 122.892 39.542V52.3609Z" fill="#1FA05B"/>
<path d="M139.444 48.3386C139.875 48.3386 140.345 48.301 140.853 48.2258C141.387 48.1256 141.78 48.0003 142.034 47.8499V44.8425L139.291 45.0681C138.58 45.1182 137.996 45.2686 137.539 45.5192C137.082 45.7698 136.853 46.1457 136.853 46.6469C136.853 47.1482 137.044 47.5617 137.425 47.8875C137.831 48.1882 138.504 48.3386 139.444 48.3386ZM139.139 33.5649C140.51 33.5649 141.755 33.7028 142.872 33.9784C144.015 34.2541 144.98 34.6801 145.767 35.2566C146.58 35.8079 147.202 36.5222 147.634 37.3993C148.066 38.2514 148.282 39.2664 148.282 40.4443V48.8649C148.282 49.5165 148.091 50.0553 147.71 50.4813C147.355 50.8823 146.923 51.2332 146.415 51.5339C144.764 52.5113 142.441 53 139.444 53C138.098 53 136.879 52.8747 135.787 52.6241C134.72 52.3735 133.793 51.9975 133.006 51.4963C132.244 50.9951 131.647 50.356 131.215 49.5791C130.809 48.8022 130.606 47.9 130.606 46.8725C130.606 45.1433 131.126 43.815 132.168 42.8877C133.209 41.9605 134.822 41.3841 137.006 41.1585L141.996 40.6322V40.3691C141.996 39.6423 141.666 39.1285 141.006 38.8278C140.371 38.502 139.444 38.3391 138.225 38.3391C137.26 38.3391 136.32 38.4393 135.406 38.6398C134.491 38.8403 133.666 39.0909 132.93 39.3917C132.599 39.1661 132.32 38.8278 132.092 38.3767C131.863 37.9005 131.749 37.4118 131.749 36.9106C131.749 36.259 131.901 35.7453 132.206 35.3693C132.536 34.9683 133.031 34.63 133.691 34.3543C134.428 34.0787 135.291 33.8782 136.282 33.7529C137.298 33.6276 138.25 33.5649 139.139 33.5649Z" fill="#1FA05B"/>
<path d="M152.889 52.3985C152.483 52.0477 152.153 51.6342 151.899 51.158C151.67 50.6818 151.556 50.143 151.556 49.5415C151.556 49.0403 151.67 48.5516 151.899 48.0754C152.153 47.5742 152.457 47.1106 152.813 46.6845L159.365 39.0909H152.356C152.203 38.8153 152.051 38.4644 151.899 38.0384C151.772 37.6123 151.708 37.1487 151.708 36.6475C151.708 35.7703 151.899 35.1438 152.28 34.7679C152.686 34.3669 153.219 34.1664 153.879 34.1664H165.879C166.286 34.5172 166.603 34.9308 166.832 35.4069C167.086 35.8831 167.213 36.4219 167.213 37.0234C167.213 37.5246 167.086 38.0258 166.832 38.5271C166.603 39.0032 166.311 39.4543 165.955 39.8804L159.556 47.474H167.022C167.174 47.7496 167.314 48.1005 167.441 48.5265C167.594 48.9526 167.67 49.4162 167.67 49.9174C167.67 50.7946 167.467 51.4337 167.06 51.8346C166.679 52.2106 166.159 52.3985 165.498 52.3985H152.889Z" fill="#1FA05B"/>
<path d="M180 53C178.502 53 177.105 52.7995 175.81 52.3985C174.54 51.9725 173.422 51.3459 172.457 50.5189C171.518 49.6919 170.769 48.6519 170.21 47.3988C169.677 46.1457 169.41 44.6796 169.41 43.0005C169.41 41.3465 169.677 39.9305 170.21 38.7526C170.769 37.5497 171.492 36.5723 172.381 35.8204C173.27 35.0435 174.286 34.4797 175.429 34.1288C176.572 33.7529 177.74 33.5649 178.933 33.5649C180.279 33.5649 181.499 33.7654 182.591 34.1664C183.708 34.5674 184.66 35.1187 185.448 35.8204C186.26 36.5222 186.883 37.3617 187.314 38.3391C187.771 39.3165 188 40.3816 188 41.5344C188 42.3865 187.759 43.0381 187.276 43.4892C186.794 43.9403 186.121 44.2285 185.257 44.3538L175.848 45.7447C176.127 46.5718 176.699 47.1983 177.562 47.6243C178.426 48.0253 179.416 48.2258 180.533 48.2258C181.575 48.2258 182.552 48.1005 183.467 47.8499C184.406 47.5742 185.168 47.2609 185.752 46.9101C186.159 47.1607 186.502 47.5116 186.781 47.9627C187.06 48.4138 187.2 48.8899 187.2 49.3912C187.2 50.5189 186.667 51.3585 185.6 51.9098C184.787 52.3359 183.873 52.6241 182.857 52.7744C181.841 52.9248 180.889 53 180 53ZM178.933 38.2263C178.324 38.2263 177.791 38.3266 177.334 38.5271C176.902 38.7276 176.546 38.9907 176.267 39.3165C175.988 39.6172 175.772 39.9681 175.619 40.3691C175.492 40.745 175.416 41.1334 175.391 41.5344L181.905 40.4818C181.829 39.9806 181.549 39.4794 181.067 38.9782C180.584 38.4769 179.873 38.2263 178.933 38.2263Z" fill="#1FA05B"/>
</svg>
